<?xml version="1.0" encoding="UTF-8" standalone="no"?>
<!DOCTYPE svg PUBLIC "-//W3C//DTD SVG 1.1//EN"
 "http://www.w3.org/Graphics/SVG/1.1/DTD/svg11.dtd">
<!-- Generated by graphviz version 2.40.1 (20161225.0304)
 -->
<!-- Title: controllers_diagram Pages: 1 -->
<svg width="391pt" height="309pt"
 viewBox="0.00 0.00 391.38 309.00" xmlns="http://www.w3.org/2000/svg" xmlns:xlink="http://www.w3.org/1999/xlink">
<g id="graph0" class="graph" transform="scale(1 1) rotate(0) translate(4 305)">
<title>controllers_diagram</title>
<polygon fill="transparent" stroke="transparent" points="-4,4 -4,-305 387.3755,-305 387.3755,4 -4,4"/>
<!-- _diagram_info -->
<g id="node1" class="node">
<title>_diagram_info</title>
<text text-anchor="start" x="184" y="-250.6" font-family="Times,serif" font-size="13.00" fill="#000000">Controllers diagram</text>
<text text-anchor="start" x="184" y="-237.6" font-family="Times,serif" font-size="13.00" fill="#000000">Date: Feb 15 2017 &#45; 14:20</text>
<text text-anchor="start" x="184" y="-224.6" font-family="Times,serif" font-size="13.00" fill="#000000">Migration version: 20170214194133</text>
<text text-anchor="start" x="184" y="-211.6" font-family="Times,serif" font-size="13.00" fill="#000000">Generated by RailRoady 1.5.2</text>
<text text-anchor="start" x="184" y="-198.6" font-family="Times,serif" font-size="13.00" fill="#000000">http://railroady.prestonlee.com</text>
</g>
<!-- Api::V1::AccountsController -->
<g id="node2" class="node">
<title>Api::V1::AccountsController</title>
<path fill="none" stroke="#000000" d="M12,-48.5C12,-48.5 168.0898,-48.5 168.0898,-48.5 174.0898,-48.5 180.0898,-54.5 180.0898,-60.5 180.0898,-60.5 180.0898,-154.5 180.0898,-154.5 180.0898,-160.5 174.0898,-166.5 168.0898,-166.5 168.0898,-166.5 12,-166.5 12,-166.5 6,-166.5 0,-160.5 0,-154.5 0,-154.5 0,-60.5 0,-60.5 0,-54.5 6,-48.5 12,-48.5"/>
<text text-anchor="middle" x="90.0449" y="-151.3" font-family="Times,serif" font-size="14.00" fill="#000000">Api::V1::AccountsController</text>
<polyline fill="none" stroke="#000000" points="0,-144.5 180.0898,-144.5 "/>
<text text-anchor="start" x="8" y="-129.3" font-family="Times,serif" font-size="14.00" fill="#000000">create</text>
<text text-anchor="start" x="8" y="-115.3" font-family="Times,serif" font-size="14.00" fill="#000000">index</text>
<text text-anchor="start" x="8" y="-101.3" font-family="Times,serif" font-size="14.00" fill="#000000">show</text>
<polyline fill="none" stroke="#000000" points="0,-94.5 180.0898,-94.5 "/>
<polyline fill="none" stroke="#000000" points="0,-70.5 180.0898,-70.5 "/>
<text text-anchor="start" x="8" y="-55.3" font-family="Times,serif" font-size="14.00" fill="#000000">account_params</text>
</g>
<!-- Api::V1::ProfilesController -->
<g id="node3" class="node">
<title>Api::V1::ProfilesController</title>
<path fill="none" stroke="#000000" d="M220,-.5C220,-.5 366,-.5 366,-.5 372,-.5 378,-6.5 378,-12.5 378,-12.5 378,-78.5 378,-78.5 378,-84.5 372,-90.5 366,-90.5 366,-90.5 220,-90.5 220,-90.5 214,-90.5 208,-84.5 208,-78.5 208,-78.5 208,-12.5 208,-12.5 208,-6.5 214,-.5 220,-.5"/>
<text text-anchor="middle" x="293" y="-75.3" font-family="Times,serif" font-size="14.00" fill="#000000">Api::V1::ProfilesController</text>
<polyline fill="none" stroke="#000000" points="208,-68.5 378,-68.5 "/>
<text text-anchor="start" x="216" y="-53.3" font-family="Times,serif" font-size="14.00" fill="#000000">create</text>
<polyline fill="none" stroke="#000000" points="208,-46.5 378,-46.5 "/>
<polyline fill="none" stroke="#000000" points="208,-22.5 378,-22.5 "/>
<text text-anchor="start" x="216" y="-7.3" font-family="Times,serif" font-size="14.00" fill="#000000">profile_params</text>
</g>
<!-- ApplicationController -->
<g id="node4" class="node">
<title>ApplicationController</title>
<path fill="none" stroke="#000000" d="M12,-208.5C12,-208.5 127.6416,-208.5 127.6416,-208.5 133.6416,-208.5 139.6416,-214.5 139.6416,-220.5 139.6416,-220.5 139.6416,-288.5 139.6416,-288.5 139.6416,-294.5 133.6416,-300.5 127.6416,-300.5 127.6416,-300.5 12,-300.5 12,-300.5 6,-300.5 0,-294.5 0,-288.5 0,-288.5 0,-220.5 0,-220.5 0,-214.5 6,-208.5 12,-208.5"/>
<text text-anchor="middle" x="69.8208" y="-285.3" font-family="Times,serif" font-size="14.00" fill="#000000">ApplicationController</text>
<polyline fill="none" stroke="#000000" points="0,-278.5 139.6416,-278.5 "/>
<text text-anchor="start" x="8" y="-263.3" font-family="Times,serif" font-size="14.00" fill="#000000">current_account</text>
<polyline fill="none" stroke="#000000" points="0,-256.5 139.6416,-256.5 "/>
<polyline fill="none" stroke="#000000" points="0,-232.5 139.6416,-232.5 "/>
</g>
</g>
</svg>
