<?xml version="1.0" encoding="UTF-8" standalone="no"?>
<!DOCTYPE svg PUBLIC "-//W3C//DTD SVG 1.1//EN"
 "http://www.w3.org/Graphics/SVG/1.1/DTD/svg11.dtd">
<!-- Generated by graphviz version 2.40.1 (20161225.0304)
 -->
<!-- Title: models_diagram Pages: 1 -->
<svg width="613pt" height="297pt"
 viewBox="0.00 0.00 613.08 297.00" xmlns="http://www.w3.org/2000/svg" xmlns:xlink="http://www.w3.org/1999/xlink">
<g id="graph0" class="graph" transform="scale(1 1) rotate(0) translate(4 293)">
<title>models_diagram</title>
<polygon fill="transparent" stroke="transparent" points="-4,4 -4,-293 609.0835,-293 609.0835,4 -4,4"/>
<!-- _diagram_info -->
<g id="node1" class="node">
<title>_diagram_info</title>
<text text-anchor="start" x="8" y="-274.6" font-family="Times,serif" font-size="13.00" fill="#000000">Models diagram</text>
<text text-anchor="start" x="8" y="-261.6" font-family="Times,serif" font-size="13.00" fill="#000000">Date: Feb 15 2017 &#45; 14:20</text>
<text text-anchor="start" x="8" y="-248.6" font-family="Times,serif" font-size="13.00" fill="#000000">Migration version: 20170214194133</text>
<text text-anchor="start" x="8" y="-235.6" font-family="Times,serif" font-size="13.00" fill="#000000">Generated by RailRoady 1.5.2</text>
<text text-anchor="start" x="8" y="-222.6" font-family="Times,serif" font-size="13.00" fill="#000000">http://railroady.prestonlee.com</text>
</g>
<!-- Account -->
<g id="node2" class="node">
<title>Account</title>
<ellipse fill="none" stroke="#000000" cx="265.6877" cy="-252.5" rx="40.1317" ry="18"/>
<text text-anchor="middle" x="265.6877" y="-248.3" font-family="Times,serif" font-size="14.00" fill="#000000">Account</text>
</g>
<!-- Profile -->
<g id="node6" class="node">
<title>Profile</title>
<ellipse fill="none" stroke="#000000" cx="265.6877" cy="-162" rx="33.8857" ry="18"/>
<text text-anchor="middle" x="265.6877" y="-157.8" font-family="Times,serif" font-size="14.00" fill="#000000">Profile</text>
</g>
<!-- Account&#45;&gt;Profile -->
<g id="edge1" class="edge">
<title>Account&#45;&gt;Profile</title>
<path fill="none" stroke="#a271a7" d="M265.6877,-225.9687C265.6877,-214.1519 265.6877,-200.2674 265.6877,-188.459"/>
<ellipse fill="none" stroke="#a271a7" cx="265.6878" cy="-230.186" rx="4" ry="4"/>
<ellipse fill="#a271a7" stroke="#a271a7" cx="265.6878" cy="-184.2868" rx="4" ry="4"/>
</g>
<!-- ApplicationRecord -->
<g id="node3" class="node">
<title>ApplicationRecord</title>
<ellipse fill="none" stroke="#000000" cx="527.6877" cy="-252.5" rx="77.2916" ry="18"/>
<text text-anchor="middle" x="527.6877" y="-248.3" font-family="Times,serif" font-size="14.00" fill="#000000">ApplicationRecord</text>
</g>
<!-- Commute -->
<g id="node4" class="node">
<title>Commute</title>
<ellipse fill="none" stroke="#000000" cx="131.6877" cy="-18" rx="44.9768" ry="18"/>
<text text-anchor="middle" x="131.6877" y="-13.8" font-family="Times,serif" font-size="14.00" fill="#000000">Commute</text>
</g>
<!-- Interest -->
<g id="node5" class="node">
<title>Interest</title>
<ellipse fill="none" stroke="#000000" cx="395.6877" cy="-252.5" rx="36.7489" ry="18"/>
<text text-anchor="middle" x="395.6877" y="-248.3" font-family="Times,serif" font-size="14.00" fill="#000000">Interest</text>
</g>
<!-- Interest&#45;&gt;Profile -->
<g id="edge2" class="edge">
<title>Interest&#45;&gt;Profile</title>
<path fill="none" stroke="#8dfa5a" d="M366.0228,-231.8487C344.6527,-216.9718 315.9621,-196.9987 294.735,-182.2213"/>
<polygon fill="#8dfa5a" stroke="#8dfa5a" points="366.3045,-232.0447 371.9406,-241.4514 370.4081,-234.9015 374.5117,-237.7582 374.5117,-237.7582 374.5117,-237.7582 370.4081,-234.9015 377.0827,-234.065 366.3045,-232.0447 366.3045,-232.0447"/>
<polygon fill="#8dfa5a" stroke="#8dfa5a" points="294.6319,-182.1496 288.9958,-172.7429 290.5283,-179.2929 286.4248,-176.4362 286.4248,-176.4362 286.4248,-176.4362 290.5283,-179.2929 283.8537,-180.1294 294.6319,-182.1496 294.6319,-182.1496"/>
</g>
<!-- ProfileInterest -->
<g id="node7" class="node">
<title>ProfileInterest</title>
<ellipse fill="none" stroke="#000000" cx="363.6877" cy="-18" rx="60.4202" ry="18"/>
<text text-anchor="middle" x="363.6877" y="-13.8" font-family="Times,serif" font-size="14.00" fill="#000000">ProfileInterest</text>
</g>
<!-- Interest&#45;&gt;ProfileInterest -->
<g id="edge3" class="edge">
<title>Interest&#45;&gt;ProfileInterest</title>
<path fill="none" stroke="#e49e96" d="M404.917,-226.5865C416.203,-190.6258 431.5087,-124.1331 411.6877,-72 407.4899,-60.9588 399.8851,-50.7335 391.948,-42.218"/>
<ellipse fill="none" stroke="#e49e96" cx="403.5387" cy="-230.82" rx="4" ry="4"/>
<polygon fill="#e49e96" stroke="#e49e96" points="391.7151,-41.9845 387.8398,-31.7262 388.1843,-38.4442 384.6536,-34.9039 384.6536,-34.9039 384.6536,-34.9039 388.1843,-38.4442 381.4673,-38.0816 391.7151,-41.9845 391.7151,-41.9845"/>
</g>
<!-- Profile&#45;&gt;Commute -->
<g id="edge4" class="edge">
<title>Profile&#45;&gt;Commute</title>
<path fill="none" stroke="#8a9727" d="M224.4009,-157.7632C167.4119,-150.9659 69.216,-135.5116 47.6877,-108 37.8275,-95.3994 40.0207,-86.0434 47.6877,-72 56.6463,-55.5909 72.9624,-43.4243 88.8479,-34.8376"/>
<ellipse fill="none" stroke="#8a9727" cx="228.5228" cy="-158.242" rx="4" ry="4"/>
<polygon fill="#8a9727" stroke="#8a9727" points="89.1577,-34.6819 100.1135,-34.2112 93.6251,-32.4362 98.0924,-30.1906 98.0924,-30.1906 98.0924,-30.1906 93.6251,-32.4362 96.0713,-26.17 89.1577,-34.6819 89.1577,-34.6819"/>
</g>
<!-- Profile&#45;&gt;ProfileInterest -->
<g id="edge6" class="edge">
<title>Profile&#45;&gt;ProfileInterest</title>
<path fill="none" stroke="#22c2a4" d="M277.7442,-136.9145C287.1056,-118.3541 300.9402,-92.7947 315.6877,-72 322.7591,-62.0291 331.4025,-51.8242 339.3964,-43.0083"/>
<ellipse fill="none" stroke="#22c2a4" cx="275.7984" cy="-140.8251" rx="4" ry="4"/>
<polygon fill="#22c2a4" stroke="#22c2a4" points="339.4056,-42.9984 349.5008,-38.7162 342.8019,-39.3289 346.1983,-35.6595 346.1983,-35.6595 346.1983,-35.6595 342.8019,-39.3289 342.8958,-32.6028 339.4056,-42.9984 339.4056,-42.9984"/>
</g>
<!-- ProfilePurpose -->
<g id="node8" class="node">
<title>ProfilePurpose</title>
<ellipse fill="none" stroke="#000000" cx="118.6877" cy="-90" rx="62.3754" ry="18"/>
<text text-anchor="middle" x="118.6877" y="-85.8" font-family="Times,serif" font-size="14.00" fill="#000000">ProfilePurpose</text>
</g>
<!-- Profile&#45;&gt;ProfilePurpose -->
<g id="edge7" class="edge">
<title>Profile&#45;&gt;ProfilePurpose</title>
<path fill="none" stroke="#9bed46" d="M233.4131,-146.192C211.7416,-135.5774 183.0028,-121.5013 159.7107,-110.0929"/>
<ellipse fill="none" stroke="#9bed46" cx="237.1589" cy="-148.0267" rx="4" ry="4"/>
<polygon fill="#9bed46" stroke="#9bed46" points="159.4068,-109.9441 152.4056,-101.5041 154.9165,-107.7447 150.4262,-105.5454 150.4262,-105.5454 150.4262,-105.5454 154.9165,-107.7447 148.4468,-109.5866 159.4068,-109.9441 159.4068,-109.9441"/>
</g>
<!-- Purpose -->
<g id="node9" class="node">
<title>Purpose</title>
<ellipse fill="none" stroke="#000000" cx="363.6877" cy="-90" rx="38.7042" ry="18"/>
<text text-anchor="middle" x="363.6877" y="-85.8" font-family="Times,serif" font-size="14.00" fill="#000000">Purpose</text>
</g>
<!-- Profile&#45;&gt;Purpose -->
<g id="edge8" class="edge">
<title>Profile&#45;&gt;Purpose</title>
<path fill="none" stroke="#cb56c0" d="M293.7977,-141.3478C306.63,-131.92 321.8141,-120.7643 334.7456,-111.2636"/>
<polygon fill="#cb56c0" stroke="#cb56c0" points="293.5783,-141.5089 282.8551,-143.8032 289.5489,-144.4693 285.5195,-147.4297 285.5195,-147.4297 285.5195,-147.4297 289.5489,-144.4693 288.1839,-151.0562 293.5783,-141.5089 293.5783,-141.5089"/>
<polygon fill="#cb56c0" stroke="#cb56c0" points="334.8119,-111.2149 345.5351,-108.9206 338.8413,-108.2545 342.8707,-105.2941 342.8707,-105.2941 342.8707,-105.2941 338.8413,-108.2545 340.2064,-101.6676 334.8119,-111.2149 334.8119,-111.2149"/>
</g>
<!-- Station -->
<g id="node10" class="node">
<title>Station</title>
<ellipse fill="none" stroke="#000000" cx="233.6877" cy="-90" rx="35.3303" ry="18"/>
<text text-anchor="middle" x="233.6877" y="-85.8" font-family="Times,serif" font-size="14.00" fill="#000000">Station</text>
</g>
<!-- Profile&#45;&gt;Station -->
<g id="edge5" class="edge">
<title>Profile&#45;&gt;Station</title>
<path fill="none" stroke="#c3b2a4" d="M253.7091,-135.0481C251.0952,-129.1667 248.3281,-122.9407 245.7123,-117.0553"/>
<polygon fill="#c3b2a4" stroke="#c3b2a4" points="253.7162,-135.0641 253.6655,-146.0299 255.7469,-139.6332 257.7776,-144.2022 257.7776,-144.2022 257.7776,-144.2022 255.7469,-139.6332 261.8898,-142.3746 253.7162,-135.0641 253.7162,-135.0641"/>
<polygon fill="#c3b2a4" stroke="#c3b2a4" points="245.5683,-116.7312 245.619,-105.7654 243.5376,-112.1621 241.5069,-107.593 241.5069,-107.593 241.5069,-107.593 243.5376,-112.1621 237.3947,-109.4207 245.5683,-116.7312 245.5683,-116.7312"/>
</g>
<!-- Purpose&#45;&gt;ProfileInterest -->
<g id="edge9" class="edge">
<title>Purpose&#45;&gt;ProfileInterest</title>
<path fill="none" stroke="#28e5e5" d="M363.6877,-63.8144C363.6877,-58.2775 363.6877,-52.4053 363.6877,-46.7785"/>
<ellipse fill="none" stroke="#28e5e5" cx="363.6878" cy="-67.8314" rx="4" ry="4"/>
<polygon fill="#28e5e5" stroke="#28e5e5" points="363.6878,-46.4133 368.1877,-36.4132 363.6878,-41.4133 363.6877,-36.4133 363.6877,-36.4133 363.6877,-36.4133 363.6878,-41.4133 359.1877,-36.4133 363.6878,-46.4133 363.6878,-46.4133"/>
</g>
<!-- Station&#45;&gt;Commute -->
<g id="edge10" class="edge">
<title>Station&#45;&gt;Commute</title>
<path fill="none" stroke="#e707e4" d="M205.8679,-70.3625C192.4288,-60.8761 176.2619,-49.4641 162.4559,-39.7187"/>
<ellipse fill="none" stroke="#e707e4" cx="209.2854" cy="-72.7748" rx="4" ry="4"/>
<polygon fill="#e707e4" stroke="#e707e4" points="162.3799,-39.6651 156.8053,-30.2218 158.295,-36.7816 154.2102,-33.8982 154.2102,-33.8982 154.2102,-33.8982 158.295,-36.7816 151.6151,-37.5746 162.3799,-39.6651 162.3799,-39.6651"/>
</g>
</g>
</svg>
