<?xml version="1.0" encoding="UTF-8" standalone="no"?>
<!DOCTYPE svg PUBLIC "-//W3C//DTD SVG 1.1//EN"
 "http://www.w3.org/Graphics/SVG/1.1/DTD/svg11.dtd">
<!-- Generated by graphviz version 2.40.1 (20161225.0304)
 -->
<!-- Title: models_diagram Pages: 1 -->
<svg width="753pt" height="786pt"
 viewBox="0.00 0.00 753.08 786.00" xmlns="http://www.w3.org/2000/svg" xmlns:xlink="http://www.w3.org/1999/xlink">
<g id="graph0" class="graph" transform="scale(1 1) rotate(0) translate(4 782)">
<title>models_diagram</title>
<polygon fill="transparent" stroke="transparent" points="-4,4 -4,-782 749.0835,-782 749.0835,4 -4,4"/>
<!-- _diagram_info -->
<g id="node1" class="node">
<title>_diagram_info</title>
<text text-anchor="start" x="8" y="-749.6" font-family="Times,serif" font-size="13.00" fill="#000000">Models diagram</text>
<text text-anchor="start" x="8" y="-736.6" font-family="Times,serif" font-size="13.00" fill="#000000">Date: Feb 15 2017 &#45; 14:20</text>
<text text-anchor="start" x="8" y="-723.6" font-family="Times,serif" font-size="13.00" fill="#000000">Migration version: 20170214194133</text>
<text text-anchor="start" x="8" y="-710.6" font-family="Times,serif" font-size="13.00" fill="#000000">Generated by RailRoady 1.5.2</text>
<text text-anchor="start" x="8" y="-697.6" font-family="Times,serif" font-size="13.00" fill="#000000">http://railroady.prestonlee.com</text>
</g>
<!-- Account -->
<g id="node2" class="node">
<title>Account</title>
<path fill="none" stroke="#000000" d="M237.3479,-677.5C237.3479,-677.5 372.0276,-677.5 372.0276,-677.5 378.0276,-677.5 384.0276,-683.5 384.0276,-689.5 384.0276,-689.5 384.0276,-765.5 384.0276,-765.5 384.0276,-771.5 378.0276,-777.5 372.0276,-777.5 372.0276,-777.5 237.3479,-777.5 237.3479,-777.5 231.3479,-777.5 225.3479,-771.5 225.3479,-765.5 225.3479,-765.5 225.3479,-689.5 225.3479,-689.5 225.3479,-683.5 231.3479,-677.5 237.3479,-677.5"/>
<text text-anchor="middle" x="304.6877" y="-762.3" font-family="Times,serif" font-size="14.00" fill="#000000">Account</text>
<polyline fill="none" stroke="#000000" points="225.3479,-755.5 384.0276,-755.5 "/>
<text text-anchor="start" x="233.3479" y="-740.3" font-family="Times,serif" font-size="14.00" fill="#000000">id :INTEGER</text>
<text text-anchor="start" x="233.3479" y="-726.3" font-family="Times,serif" font-size="14.00" fill="#000000">email :varchar</text>
<text text-anchor="start" x="233.3479" y="-712.3" font-family="Times,serif" font-size="14.00" fill="#000000">password_digest :varchar</text>
<text text-anchor="start" x="233.3479" y="-698.3" font-family="Times,serif" font-size="14.00" fill="#000000">created_at :datetime</text>
<text text-anchor="start" x="233.3479" y="-684.3" font-family="Times,serif" font-size="14.00" fill="#000000">updated_at :datetime</text>
</g>
<!-- Profile -->
<g id="node6" class="node">
<title>Profile</title>
<path fill="none" stroke="#000000" d="M250.1824,-372.5C250.1824,-372.5 359.1931,-372.5 359.1931,-372.5 365.1931,-372.5 371.1931,-378.5 371.1931,-384.5 371.1931,-384.5 371.1931,-628.5 371.1931,-628.5 371.1931,-634.5 365.1931,-640.5 359.1931,-640.5 359.1931,-640.5 250.1824,-640.5 250.1824,-640.5 244.1824,-640.5 238.1824,-634.5 238.1824,-628.5 238.1824,-628.5 238.1824,-384.5 238.1824,-384.5 238.1824,-378.5 244.1824,-372.5 250.1824,-372.5"/>
<text text-anchor="middle" x="304.6877" y="-625.3" font-family="Times,serif" font-size="14.00" fill="#000000">Profile</text>
<polyline fill="none" stroke="#000000" points="238.1824,-618.5 371.1931,-618.5 "/>
<text text-anchor="start" x="246.1824" y="-603.3" font-family="Times,serif" font-size="14.00" fill="#000000">updated_at :datetime</text>
<text text-anchor="start" x="246.1824" y="-589.3" font-family="Times,serif" font-size="14.00" fill="#000000">account_id :integer</text>
<text text-anchor="start" x="246.1824" y="-575.3" font-family="Times,serif" font-size="14.00" fill="#000000">name :varchar</text>
<text text-anchor="start" x="246.1824" y="-561.3" font-family="Times,serif" font-size="14.00" fill="#000000">bio :text</text>
<text text-anchor="start" x="246.1824" y="-547.3" font-family="Times,serif" font-size="14.00" fill="#000000">picture :varchar</text>
<text text-anchor="start" x="246.1824" y="-533.3" font-family="Times,serif" font-size="14.00" fill="#000000">zipcode :varchar</text>
<text text-anchor="start" x="246.1824" y="-519.3" font-family="Times,serif" font-size="14.00" fill="#000000">phone :varchar</text>
<text text-anchor="start" x="246.1824" y="-505.3" font-family="Times,serif" font-size="14.00" fill="#000000">login_count :integer</text>
<text text-anchor="start" x="246.1824" y="-491.3" font-family="Times,serif" font-size="14.00" fill="#000000">last_login :datetime</text>
<text text-anchor="start" x="246.1824" y="-477.3" font-family="Times,serif" font-size="14.00" fill="#000000">twitter :varchar</text>
<text text-anchor="start" x="246.1824" y="-463.3" font-family="Times,serif" font-size="14.00" fill="#000000">linkedin :varchar</text>
<text text-anchor="start" x="246.1824" y="-449.3" font-family="Times,serif" font-size="14.00" fill="#000000">facebook :varchar</text>
<text text-anchor="start" x="246.1824" y="-435.3" font-family="Times,serif" font-size="14.00" fill="#000000">instagram :varchar</text>
<text text-anchor="start" x="246.1824" y="-421.3" font-family="Times,serif" font-size="14.00" fill="#000000">goodreads :varchar</text>
<text text-anchor="start" x="246.1824" y="-407.3" font-family="Times,serif" font-size="14.00" fill="#000000">skype :varchar</text>
<text text-anchor="start" x="246.1824" y="-393.3" font-family="Times,serif" font-size="14.00" fill="#000000">created_at :datetime</text>
<text text-anchor="start" x="246.1824" y="-379.3" font-family="Times,serif" font-size="14.00" fill="#000000">id :INTEGER</text>
</g>
<!-- Account&#45;&gt;Profile -->
<g id="edge1" class="edge">
<title>Account&#45;&gt;Profile</title>
<path fill="none" stroke="#b8493c" d="M304.6877,-669.2844C304.6877,-662.8316 304.6877,-656.0695 304.6877,-649.122"/>
<ellipse fill="none" stroke="#b8493c" cx="304.6878" cy="-673.3517" rx="4" ry="4"/>
<ellipse fill="#b8493c" stroke="#b8493c" cx="304.6878" cy="-644.8883" rx="4" ry="4"/>
</g>
<!-- ApplicationRecord -->
<g id="node3" class="node">
<title>ApplicationRecord</title>
<ellipse fill="none" stroke="#000000" cx="667.6877" cy="-727.5" rx="77.2916" ry="18"/>
<text text-anchor="middle" x="667.6877" y="-723.3" font-family="Times,serif" font-size="14.00" fill="#000000">ApplicationRecord</text>
</g>
<!-- Commute -->
<g id="node4" class="node">
<title>Commute</title>
<path fill="none" stroke="#000000" d="M74.8962,-.5C74.8962,-.5 192.4792,-.5 192.4792,-.5 198.4792,-.5 204.4792,-6.5 204.4792,-12.5 204.4792,-12.5 204.4792,-144.5 204.4792,-144.5 204.4792,-150.5 198.4792,-156.5 192.4792,-156.5 192.4792,-156.5 74.8962,-156.5 74.8962,-156.5 68.8962,-156.5 62.8962,-150.5 62.8962,-144.5 62.8962,-144.5 62.8962,-12.5 62.8962,-12.5 62.8962,-6.5 68.8962,-.5 74.8962,-.5"/>
<text text-anchor="middle" x="133.6877" y="-141.3" font-family="Times,serif" font-size="14.00" fill="#000000">Commute</text>
<polyline fill="none" stroke="#000000" points="62.8962,-134.5 204.4792,-134.5 "/>
<text text-anchor="start" x="70.8962" y="-119.3" font-family="Times,serif" font-size="14.00" fill="#000000">updated_at :datetime</text>
<text text-anchor="start" x="70.8962" y="-105.3" font-family="Times,serif" font-size="14.00" fill="#000000">profile_id :integer</text>
<text text-anchor="start" x="70.8962" y="-91.3" font-family="Times,serif" font-size="14.00" fill="#000000">origin_id :integer</text>
<text text-anchor="start" x="70.8962" y="-77.3" font-family="Times,serif" font-size="14.00" fill="#000000">destination_id :integer</text>
<text text-anchor="start" x="70.8962" y="-63.3" font-family="Times,serif" font-size="14.00" fill="#000000">time :varchar</text>
<text text-anchor="start" x="70.8962" y="-49.3" font-family="Times,serif" font-size="14.00" fill="#000000">nickname :varchar</text>
<text text-anchor="start" x="70.8962" y="-35.3" font-family="Times,serif" font-size="14.00" fill="#000000">available :boolean</text>
<text text-anchor="start" x="70.8962" y="-21.3" font-family="Times,serif" font-size="14.00" fill="#000000">created_at :datetime</text>
<text text-anchor="start" x="70.8962" y="-7.3" font-family="Times,serif" font-size="14.00" fill="#000000">id :INTEGER</text>
</g>
<!-- Interest -->
<g id="node5" class="node">
<title>Interest</title>
<path fill="none" stroke="#000000" d="M451.1824,-684.5C451.1824,-684.5 560.1931,-684.5 560.1931,-684.5 566.1931,-684.5 572.1931,-690.5 572.1931,-696.5 572.1931,-696.5 572.1931,-758.5 572.1931,-758.5 572.1931,-764.5 566.1931,-770.5 560.1931,-770.5 560.1931,-770.5 451.1824,-770.5 451.1824,-770.5 445.1824,-770.5 439.1824,-764.5 439.1824,-758.5 439.1824,-758.5 439.1824,-696.5 439.1824,-696.5 439.1824,-690.5 445.1824,-684.5 451.1824,-684.5"/>
<text text-anchor="middle" x="505.6877" y="-755.3" font-family="Times,serif" font-size="14.00" fill="#000000">Interest</text>
<polyline fill="none" stroke="#000000" points="439.1824,-748.5 572.1931,-748.5 "/>
<text text-anchor="start" x="447.1824" y="-733.3" font-family="Times,serif" font-size="14.00" fill="#000000">id :INTEGER</text>
<text text-anchor="start" x="447.1824" y="-719.3" font-family="Times,serif" font-size="14.00" fill="#000000">name :varchar</text>
<text text-anchor="start" x="447.1824" y="-705.3" font-family="Times,serif" font-size="14.00" fill="#000000">created_at :datetime</text>
<text text-anchor="start" x="447.1824" y="-691.3" font-family="Times,serif" font-size="14.00" fill="#000000">updated_at :datetime</text>
</g>
<!-- Interest&#45;&gt;Profile -->
<g id="edge2" class="edge">
<title>Interest&#45;&gt;Profile</title>
<path fill="none" stroke="#096e1d" d="M459.6364,-676.8665C435.5811,-650.4176 405.5643,-617.4141 378.373,-587.5171"/>
<polygon fill="#096e1d" stroke="#096e1d" points="459.7273,-676.9664 463.1267,-687.3921 463.0916,-680.6654 466.4558,-684.3643 466.4558,-684.3643 466.4558,-684.3643 463.0916,-680.6654 469.7848,-681.3365 459.7273,-676.9664 459.7273,-676.9664"/>
<polygon fill="#096e1d" stroke="#096e1d" points="378.2546,-587.387 374.8553,-576.9613 374.8904,-583.688 371.5262,-579.989 371.5262,-579.989 371.5262,-579.989 374.8904,-583.688 368.1971,-583.0168 378.2546,-587.387 378.2546,-587.387"/>
</g>
<!-- ProfileInterest -->
<g id="node7" class="node">
<title>ProfileInterest</title>
<path fill="none" stroke="#000000" d="M392.1824,-28.5C392.1824,-28.5 501.1931,-28.5 501.1931,-28.5 507.1931,-28.5 513.1931,-34.5 513.1931,-40.5 513.1931,-40.5 513.1931,-116.5 513.1931,-116.5 513.1931,-122.5 507.1931,-128.5 501.1931,-128.5 501.1931,-128.5 392.1824,-128.5 392.1824,-128.5 386.1824,-128.5 380.1824,-122.5 380.1824,-116.5 380.1824,-116.5 380.1824,-40.5 380.1824,-40.5 380.1824,-34.5 386.1824,-28.5 392.1824,-28.5"/>
<text text-anchor="middle" x="446.6877" y="-113.3" font-family="Times,serif" font-size="14.00" fill="#000000">ProfileInterest</text>
<polyline fill="none" stroke="#000000" points="380.1824,-106.5 513.1931,-106.5 "/>
<text text-anchor="start" x="388.1824" y="-91.3" font-family="Times,serif" font-size="14.00" fill="#000000">id :INTEGER</text>
<text text-anchor="start" x="388.1824" y="-77.3" font-family="Times,serif" font-size="14.00" fill="#000000">profile_id :integer</text>
<text text-anchor="start" x="388.1824" y="-63.3" font-family="Times,serif" font-size="14.00" fill="#000000">interest_id :integer</text>
<text text-anchor="start" x="388.1824" y="-49.3" font-family="Times,serif" font-size="14.00" fill="#000000">created_at :datetime</text>
<text text-anchor="start" x="388.1824" y="-35.3" font-family="Times,serif" font-size="14.00" fill="#000000">updated_at :datetime</text>
</g>
<!-- Interest&#45;&gt;ProfileInterest -->
<g id="edge3" class="edge">
<title>Interest&#45;&gt;ProfileInterest</title>
<path fill="none" stroke="#05ab1b" d="M517.8856,-676.5015C538.7408,-579.7553 574.2635,-363.9648 522.6877,-193 516.7904,-173.4512 506.3423,-154.1765 495.0453,-137.1773"/>
<ellipse fill="none" stroke="#05ab1b" cx="517.0183" cy="-680.4673" rx="4" ry="4"/>
<polygon fill="#05ab1b" stroke="#05ab1b" points="494.7476,-136.7446 492.7873,-125.9553 491.9138,-132.6252 489.0799,-128.5058 489.0799,-128.5058 489.0799,-128.5058 491.9138,-132.6252 485.3724,-131.0563 494.7476,-136.7446 494.7476,-136.7446"/>
</g>
<!-- Profile&#45;&gt;Commute -->
<g id="edge4" class="edge">
<title>Profile&#45;&gt;Commute</title>
<path fill="none" stroke="#4c97d5" d="M230.0666,-483.4419C164.1416,-458.6503 72.0864,-412.1736 29.6877,-336 -1.2221,-280.4672 6.7827,-252.2846 29.6877,-193 35.8364,-177.0856 45.3384,-162.0183 56.1506,-148.3578"/>
<ellipse fill="none" stroke="#4c97d5" cx="234.2189" cy="-484.9738" rx="4" ry="4"/>
<polygon fill="#4c97d5" stroke="#4c97d5" points="56.2864,-148.1933 66.123,-143.3463 59.4695,-144.3374 62.6527,-140.4815 62.6527,-140.4815 62.6527,-140.4815 59.4695,-144.3374 59.1823,-137.6167 56.2864,-148.1933 56.2864,-148.1933"/>
</g>
<!-- Profile&#45;&gt;ProfileInterest -->
<g id="edge6" class="edge">
<title>Profile&#45;&gt;ProfileInterest</title>
<path fill="none" stroke="#af8021" d="M329.2932,-364.1242C342.0249,-296.7198 357.599,-224.2413 370.6877,-193 378.7691,-173.7107 390.2267,-154.2066 401.8009,-136.8965"/>
<ellipse fill="none" stroke="#af8021" cx="328.4933" cy="-368.3847" rx="4" ry="4"/>
<polygon fill="#af8021" stroke="#af8021" points="401.8374,-136.843 411.1938,-131.1238 404.6577,-132.7143 407.4779,-128.5856 407.4779,-128.5856 407.4779,-128.5856 404.6577,-132.7143 403.7621,-126.0474 401.8374,-136.843 401.8374,-136.843"/>
</g>
<!-- ProfilePurpose -->
<g id="node8" class="node">
<title>ProfilePurpose</title>
<path fill="none" stroke="#000000" d="M51.1824,-214.5C51.1824,-214.5 160.1931,-214.5 160.1931,-214.5 166.1931,-214.5 172.1931,-220.5 172.1931,-226.5 172.1931,-226.5 172.1931,-302.5 172.1931,-302.5 172.1931,-308.5 166.1931,-314.5 160.1931,-314.5 160.1931,-314.5 51.1824,-314.5 51.1824,-314.5 45.1824,-314.5 39.1824,-308.5 39.1824,-302.5 39.1824,-302.5 39.1824,-226.5 39.1824,-226.5 39.1824,-220.5 45.1824,-214.5 51.1824,-214.5"/>
<text text-anchor="middle" x="105.6877" y="-299.3" font-family="Times,serif" font-size="14.00" fill="#000000">ProfilePurpose</text>
<polyline fill="none" stroke="#000000" points="39.1824,-292.5 172.1931,-292.5 "/>
<text text-anchor="start" x="47.1824" y="-277.3" font-family="Times,serif" font-size="14.00" fill="#000000">id :INTEGER</text>
<text text-anchor="start" x="47.1824" y="-263.3" font-family="Times,serif" font-size="14.00" fill="#000000">profile_id :integer</text>
<text text-anchor="start" x="47.1824" y="-249.3" font-family="Times,serif" font-size="14.00" fill="#000000">purpose_id :integer</text>
<text text-anchor="start" x="47.1824" y="-235.3" font-family="Times,serif" font-size="14.00" fill="#000000">created_at :datetime</text>
<text text-anchor="start" x="47.1824" y="-221.3" font-family="Times,serif" font-size="14.00" fill="#000000">updated_at :datetime</text>
</g>
<!-- Profile&#45;&gt;ProfilePurpose -->
<g id="edge7" class="edge">
<title>Profile&#45;&gt;ProfilePurpose</title>
<path fill="none" stroke="#001089" d="M232.7996,-419.0783C206.4184,-386.9966 177.225,-351.495 153.4752,-322.6134"/>
<ellipse fill="none" stroke="#001089" cx="235.6063" cy="-422.4915" rx="4" ry="4"/>
<polygon fill="#001089" stroke="#001089" points="153.2793,-322.3751 150.4035,-311.793 150.1035,-318.5131 146.9277,-314.6512 146.9277,-314.6512 146.9277,-314.6512 150.1035,-318.5131 143.452,-317.5093 153.2793,-322.3751 153.2793,-322.3751"/>
</g>
<!-- Purpose -->
<g id="node9" class="node">
<title>Purpose</title>
<path fill="none" stroke="#000000" d="M392.1824,-221.5C392.1824,-221.5 501.1931,-221.5 501.1931,-221.5 507.1931,-221.5 513.1931,-227.5 513.1931,-233.5 513.1931,-233.5 513.1931,-295.5 513.1931,-295.5 513.1931,-301.5 507.1931,-307.5 501.1931,-307.5 501.1931,-307.5 392.1824,-307.5 392.1824,-307.5 386.1824,-307.5 380.1824,-301.5 380.1824,-295.5 380.1824,-295.5 380.1824,-233.5 380.1824,-233.5 380.1824,-227.5 386.1824,-221.5 392.1824,-221.5"/>
<text text-anchor="middle" x="446.6877" y="-292.3" font-family="Times,serif" font-size="14.00" fill="#000000">Purpose</text>
<polyline fill="none" stroke="#000000" points="380.1824,-285.5 513.1931,-285.5 "/>
<text text-anchor="start" x="388.1824" y="-270.3" font-family="Times,serif" font-size="14.00" fill="#000000">id :INTEGER</text>
<text text-anchor="start" x="388.1824" y="-256.3" font-family="Times,serif" font-size="14.00" fill="#000000">name :varchar</text>
<text text-anchor="start" x="388.1824" y="-242.3" font-family="Times,serif" font-size="14.00" fill="#000000">created_at :datetime</text>
<text text-anchor="start" x="388.1824" y="-228.3" font-family="Times,serif" font-size="14.00" fill="#000000">updated_at :datetime</text>
</g>
<!-- Profile&#45;&gt;Purpose -->
<g id="edge8" class="edge">
<title>Profile&#45;&gt;Purpose</title>
<path fill="none" stroke="#e178ea" d="M376.5427,-384.0429C390.4926,-360.2692 404.3984,-336.5705 416.1058,-316.6185"/>
<polygon fill="#e178ea" stroke="#e178ea" points="376.3829,-384.3153 367.4408,-390.6628 373.8525,-388.6277 371.322,-392.9402 371.322,-392.9402 371.322,-392.9402 373.8525,-388.6277 375.2032,-395.2176 376.3829,-384.3153 376.3829,-384.3153"/>
<polygon fill="#e178ea" stroke="#e178ea" points="416.2615,-316.3531 425.2036,-310.0056 418.792,-312.0406 421.3224,-307.7282 421.3224,-307.7282 421.3224,-307.7282 418.792,-312.0406 417.4412,-305.4508 416.2615,-316.3531 416.2615,-316.3531"/>
</g>
<!-- Station -->
<g id="node10" class="node">
<title>Station</title>
<path fill="none" stroke="#000000" d="M202.1824,-193.5C202.1824,-193.5 311.1931,-193.5 311.1931,-193.5 317.1931,-193.5 323.1931,-199.5 323.1931,-205.5 323.1931,-205.5 323.1931,-323.5 323.1931,-323.5 323.1931,-329.5 317.1931,-335.5 311.1931,-335.5 311.1931,-335.5 202.1824,-335.5 202.1824,-335.5 196.1824,-335.5 190.1824,-329.5 190.1824,-323.5 190.1824,-323.5 190.1824,-205.5 190.1824,-205.5 190.1824,-199.5 196.1824,-193.5 202.1824,-193.5"/>
<text text-anchor="middle" x="256.6877" y="-320.3" font-family="Times,serif" font-size="14.00" fill="#000000">Station</text>
<polyline fill="none" stroke="#000000" points="190.1824,-313.5 323.1931,-313.5 "/>
<text text-anchor="start" x="198.1824" y="-298.3" font-family="Times,serif" font-size="14.00" fill="#000000">updated_at :datetime</text>
<text text-anchor="start" x="198.1824" y="-284.3" font-family="Times,serif" font-size="14.00" fill="#000000">name :varchar</text>
<text text-anchor="start" x="198.1824" y="-270.3" font-family="Times,serif" font-size="14.00" fill="#000000">mta_id :integer</text>
<text text-anchor="start" x="198.1824" y="-256.3" font-family="Times,serif" font-size="14.00" fill="#000000">gps :text</text>
<text text-anchor="start" x="198.1824" y="-242.3" font-family="Times,serif" font-size="14.00" fill="#000000">line :varchar</text>
<text text-anchor="start" x="198.1824" y="-228.3" font-family="Times,serif" font-size="14.00" fill="#000000">notes :text</text>
<text text-anchor="start" x="198.1824" y="-214.3" font-family="Times,serif" font-size="14.00" fill="#000000">created_at :datetime</text>
<text text-anchor="start" x="198.1824" y="-200.3" font-family="Times,serif" font-size="14.00" fill="#000000">id :INTEGER</text>
</g>
<!-- Profile&#45;&gt;Station -->
<g id="edge5" class="edge">
<title>Profile&#45;&gt;Station</title>
<path fill="none" stroke="#64b8b2" d="M276.1015,-362.3775C274.9628,-356.6366 273.8384,-350.9678 272.7391,-345.4255"/>
<polygon fill="#64b8b2" stroke="#64b8b2" points="276.1451,-362.5977 273.6767,-373.2822 277.1179,-367.5022 278.0907,-372.4066 278.0907,-372.4066 278.0907,-372.4066 277.1179,-367.5022 282.5047,-371.5311 276.1451,-362.5977 276.1451,-362.5977"/>
<polygon fill="#64b8b2" stroke="#64b8b2" points="272.7354,-345.4066 275.2038,-334.7221 271.7626,-340.5021 270.7898,-335.5977 270.7898,-335.5977 270.7898,-335.5977 271.7626,-340.5021 266.3758,-336.4732 272.7354,-345.4066 272.7354,-345.4066"/>
</g>
<!-- Purpose&#45;&gt;ProfileInterest -->
<g id="edge9" class="edge">
<title>Purpose&#45;&gt;ProfileInterest</title>
<path fill="none" stroke="#5ce3d3" d="M446.6877,-213.0236C446.6877,-189.9882 446.6877,-162.6759 446.6877,-138.6996"/>
<ellipse fill="none" stroke="#5ce3d3" cx="446.6878" cy="-217.3604" rx="4" ry="4"/>
<polygon fill="#5ce3d3" stroke="#5ce3d3" points="446.6878,-138.6505 451.1877,-128.6504 446.6878,-133.6505 446.6877,-128.6505 446.6877,-128.6505 446.6877,-128.6505 446.6878,-133.6505 442.1877,-128.6505 446.6878,-138.6505 446.6878,-138.6505"/>
</g>
<!-- Station&#45;&gt;Commute -->
<g id="edge10" class="edge">
<title>Station&#45;&gt;Commute</title>
<path fill="none" stroke="#ed8572" d="M205.1647,-186.5871C200.468,-179.4847 195.6915,-172.2617 190.9487,-165.0898"/>
<ellipse fill="none" stroke="#ed8572" cx="207.4538" cy="-190.0488" rx="4" ry="4"/>
<polygon fill="#ed8572" stroke="#ed8572" points="190.9195,-165.0455 189.157,-154.2221 188.1615,-160.8749 185.4035,-156.7043 185.4035,-156.7043 185.4035,-156.7043 188.1615,-160.8749 181.65,-159.1865 190.9195,-165.0455 190.9195,-165.0455"/>
</g>
</g>
</svg>
